# xmcd
# Copyright (C) 1995-1998 Ti Kan
#
# Track frame offsets:
#       150
#       15125
#       19450
#       35710
#       41205
#       57112
#       70495
#       88917
#       104632
#       119295
#       135975
#       149995
#       159930
#       168532
#       183260
#       200032
#       210155
#       226365
#       242930
#       257055
#
# Disc length: 3579 seconds
#
# Revision: 0
# Processed by: cddbd v1.5.2PL0 Copyright (c) Steve Scherf et al.
# Submitted via: CD-Import v1.0
#
DISCID=270df914
DTITLE=Beastie Boys - Ill Communicatio
DYEAR=1900
DGENRE=
TTITLE0=Sure Shot
TTITLE1=Tough Guy
TTITLE2=B-Boys Makin' With The Freak Freak
TTITLE3=Bobo On The Corner
TTITLE4=Root Down
TTITLE5=Sabotage
TTITLE6=Get It Together
TTITLE7=Sabrosa
TTITLE8=The Update
TTITLE9=Futterman's Rule
TTITLE10=Alright Hear This
TTITLE11=Eugene's Lament
TTITLE12=Flute Loop
TTITLE13=Do It
TTITLE14=Ricky's Theme
TTITLE15=Heart Attack Man
TTITLE16=The Scoop
TTITLE17=Shambala
TTITLE18=Bodhisattva Vow
TTITLE19=Transitions
EXTD=
EXTT0=
EXTT1=
EXTT2=
EXTT3=
EXTT4=
EXTT5=
EXTT6=
EXTT7=
EXTT8=
EXTT9=
EXTT10=
EXTT11=
EXTT12=
EXTT13=
EXTT14=
EXTT15=
EXTT16=
EXTT17=
EXTT18=
EXTT19=
PLAYORDER=
